<svg width="87" height="32" viewBox="0 0 87 32" fill="none" xmlns="http://www.w3.org/2000/svg">
<path d="M46.927 20.1772C46.9613 16.6958 45.2675 15.5651 42.2978 14.8484L36.585 13.4874C35.0151 13.0779 34.5345 12.3409 34.5345 11.3848V10.9208C34.5345 9.28227 35.5953 9.0842 37.2338 9.0842H40.135C41.7735 9.0842 42.6603 9.28227 42.6603 10.9208V11.4286C42.6603 11.7092 42.8876 11.9365 43.1682 11.9365H43.8043H46.2103C46.2122 11.9365 46.2134 11.9365 46.2153 11.9365C46.7587 11.9365 46.7327 11.3969 46.7321 11.3435C46.7232 10.6275 46.9968 5.58631 39.8277 5.58631H37.4725C33.3423 5.58631 30.4716 7.57649 30.4716 10.9214V11.9371C30.4716 14.9843 32.1825 16.0819 35.1859 16.8323L41.2269 18.3679C42.3873 18.6752 42.7238 19.2236 42.7238 20.2133V21.0665C42.7238 22.705 41.8071 22.9069 40.1693 22.9069H37.2338C35.5953 22.9069 34.6742 22.7019 34.6742 21.064C34.6742 21.064 34.6596 20.2267 34.6583 20.2171C34.6247 19.8293 34.3009 19.5246 33.9048 19.522H33.8997H31.109C31.109 19.522 31.1077 19.522 31.1071 19.522C30.6976 19.522 30.3644 19.8458 30.3472 20.2508L30.3453 21.2062C30.3453 24.5511 33.1379 26.4061 37.2681 26.4061H40.034C44.1642 26.4061 46.9282 24.546 46.9282 21.2011V20.1772H46.927Z" fill="#2F2E79"/>
<path d="M65.5172 5.84214C65.5172 5.84214 65.5153 5.84214 65.514 5.84214H62.4669C62.1863 5.84214 61.959 6.06941 61.959 6.35001C61.959 6.35381 61.959 6.35762 61.959 6.36143V13.9679H53.3203V6.36968C53.3203 6.36397 53.3209 6.35762 53.3209 6.35191C53.3209 6.0802 53.1076 5.85928 52.8397 5.84532C52.8315 5.84405 52.8232 5.84214 52.8131 5.84214H49.7659C49.486 5.84278 49.2587 6.07005 49.2581 6.35001V25.6494C49.2581 25.9299 49.4853 26.1572 49.7659 26.1572C49.7672 26.1572 49.7685 26.1572 49.7704 26.1572H52.8175C52.8175 26.1572 52.8201 26.1572 52.8213 26.1572C53.0981 26.1528 53.3209 25.9274 53.3209 25.65V17.5242H61.9597V25.643C61.9597 25.6455 61.9597 25.6475 61.9597 25.65C61.9597 25.9306 62.1869 26.1579 62.4675 26.1579H65.5147C65.7953 26.1579 66.0225 25.9306 66.0225 25.65V6.35001C66.0225 6.07068 65.7966 5.84405 65.5179 5.84214H65.5172Z" fill="#2F2E79"/>
<path d="M17.1276 3.81134H15.6872C12.1696 3.81134 8.62665 6.49983 8.39557 10.6675H17.5371C17.5371 10.6675 17.5339 13.9686 17.5371 13.9686H24.3799C24.3799 13.9686 24.378 11.9752 24.378 11.0769C24.378 7.06419 21.1403 3.81134 17.1282 3.81134H17.1276Z" fill="#F37021"/>
<path d="M16.0129 21.3325H6.87136V18.0314H0V20.9231C0 24.9358 3.26808 28.1887 7.28082 28.1887H8.72124C12.2388 28.1887 15.7818 25.5002 16.0129 21.3325Z" fill="#F37021"/>
<path d="M16.7746 15.2554C15.1939 15.2414 13.4285 15.2687 12.4223 15.1227C12.4223 15.1239 12.4216 15.1258 12.421 15.1277C5.2297 14.1196 6.74186 6.47507 11.4319 3.81134C11.4319 3.81134 6.71202 3.81134 6.63838 3.81324C2.25364 3.92751 0.0196831 7.39811 0.0196831 10.7176C0.0196831 14.0371 2.68468 16.7618 6.4784 16.7618C6.47904 16.7618 6.47967 16.7618 6.48031 16.7618H10.2893C12.5131 16.7618 14.1262 17.2646 15.1939 18.107L15.2123 18.1222C18.4646 20.6552 16.7493 26.0404 12.9657 28.1887C12.9657 28.1887 17.6856 28.1887 17.7593 28.1868C22.144 28.0725 24.4351 24.6019 24.378 21.2824C24.3405 19.0967 22.7522 16.8043 20.5836 15.8013C19.2784 15.1976 17.5352 15.2623 16.7746 15.2554Z" fill="#F37021"/>
<path d="M84.5982 17.5667C84.1011 16.8018 83.3177 16.1847 82.1719 15.7645V15.6191C82.8829 15.3436 83.5793 14.8573 84.0973 14.1285C84.616 13.3997 84.9569 12.4278 84.9569 11.1804C84.9569 9.49747 84.3328 8.16307 83.1724 7.24892C82.0119 6.33477 80.3144 5.84151 78.168 5.84151H69.5769C69.2963 5.84151 69.0691 6.06877 69.0691 6.34937V25.6487C69.0691 25.9293 69.2963 26.1566 69.5769 26.1566H78.3991C80.4445 26.1566 82.1719 25.6132 83.3863 24.6089C84.6014 23.6046 85.32 22.1324 85.32 20.2616C85.32 19.2459 85.094 18.3317 84.5976 17.5661L84.5982 17.5667ZM73.132 11.6832V9.3978H77.6811C80.1995 9.3978 80.7277 10.4459 80.7277 11.6279C80.7277 13.4207 79.3939 13.9686 77.6811 13.9686H73.132V11.6832ZM78.029 22.7564H73.132V17.5236H78.029C80.4344 17.5236 81.2577 18.7723 81.2577 20.1086C81.2577 21.4449 80.4414 22.7564 78.029 22.7564Z" fill="#2F2E79"/>
</svg>
